<svg width="338" height="32" viewBox="0 0 338 32" fill="none" xmlns="http://www.w3.org/2000/svg">
<path d="M12.488 16.36C11.96 15.496 11.216 14.776 10.304 14.248C10.76 13.888 11.144 13.456 11.456 13C12.224 11.8 12.32 10.432 11.672 9.28C11.144 8.296 9.608 6.64 5.264 6.64H3.968L3.512 22.456C3.104 22.48 2.648 22.48 2.192 22.48V25.144C9.392 25.144 11.84 22.648 12.68 21.16C13.52 19.648 13.448 17.896 12.488 16.36ZM6.536 9.352C8.216 9.52 9.08 10.048 9.344 10.528C9.56 10.912 9.392 11.296 9.224 11.56C8.816 12.208 7.832 12.832 6.44 13L6.536 9.352ZM10.352 19.864C10.112 20.32 9.176 21.544 6.176 22.144L6.368 15.688C8.384 15.904 9.68 16.864 10.232 17.752C10.544 18.256 10.832 19.024 10.352 19.864ZM25.3147 15.736C26.7307 14.104 27.0907 11.992 26.2747 10.216C25.6987 8.944 23.9707 6.832 19.0027 6.832H17.7067L17.3467 25.504L19.9867 25.552L20.1067 19.384L24.4747 23.776L26.3467 21.904L22.1947 17.728C23.3947 17.392 24.4747 16.72 25.3147 15.736ZM20.1787 15.28L20.2987 9.544C22.1467 9.736 23.4187 10.36 23.8747 11.344C24.2347 12.136 24.0187 13.192 23.2987 14.032C22.5307 14.92 21.4027 15.376 20.1787 15.28ZM37.5712 6.376L35.0272 6.424L32.0272 17.008L30.4432 17.272L30.8512 19.888L31.2352 19.816L29.8672 24.64L32.4112 25.384L34.1152 19.36L38.7472 18.616L40.1152 22.888L42.6352 22.072L37.5712 6.376ZM34.9072 16.552L36.3952 11.344L37.9072 16.072L34.9072 16.552ZM58.5232 6.592L56.5792 19.36L53.9632 11.968L51.5632 11.776L48.8272 16.6L47.7472 7L45.1312 7.312L46.6672 20.968L49.1392 21.472L52.4272 15.616L55.8352 25.24L58.4032 25L61.1392 7L58.5232 6.592ZM65.3043 8.704C65.2803 8.896 65.2563 9.688 65.2323 10.912C65.1603 13.912 65.0163 18.928 64.8963 22.312L67.5363 22.408C67.6563 19.024 67.8003 13.984 67.8723 10.984C67.9203 9.808 67.9443 8.968 67.9443 8.8L65.3043 8.704ZM80.9225 9.784C80.8985 8.872 80.8745 8.08 80.8745 7.48H78.2105C78.2105 8.152 78.2585 8.944 78.2825 9.88C78.3785 12.208 78.4745 15.112 78.2105 17.584C77.8505 20.992 76.9625 21.688 76.6025 21.832C75.9545 22.096 75.4025 22.096 74.9465 21.856C74.5385 21.64 74.3225 21.28 74.2745 21.184C74.1065 20.752 74.1545 19.984 74.1785 19.696L71.5625 19.288C71.5385 19.456 71.3465 20.968 71.8265 22.168C72.1385 22.984 72.8345 23.728 73.6745 24.184C74.1545 24.448 74.8265 24.688 75.6665 24.688C76.2425 24.688 76.8665 24.568 77.5865 24.304C79.3865 23.56 80.4665 21.472 80.8505 17.872C81.1385 15.208 81.0185 12.064 80.9225 9.784ZM92.2509 6.376L89.7069 6.424L86.7069 17.008L85.1229 17.272L85.5309 19.888L85.9149 19.816L84.5469 24.64L87.0909 25.384L88.7949 19.36L93.4269 18.616L94.7949 22.888L97.3149 22.072L92.2509 6.376ZM89.5869 16.552L91.0749 11.344L92.5869 16.072L89.5869 16.552ZM108.638 6.232L103.886 13.216L100.766 8.032L98.51 9.4L102.47 16.024L102.182 24.976L104.822 25.048L105.134 16.096L110.822 7.72L108.638 6.232ZM119.392 6.376L116.848 6.424L113.848 17.008L112.264 17.272L112.672 19.888L113.056 19.816L111.688 24.64L114.232 25.384L115.936 19.36L120.568 18.616L121.936 22.888L124.456 22.072L119.392 6.376ZM116.728 16.552L118.216 11.344L119.728 16.072L116.728 16.552ZM144.356 7.216L134.42 7.456L134.468 10.096L137.612 10.024L137.252 24.52L139.892 24.592L140.252 9.976L144.428 9.88L144.356 7.216ZM157.287 10.576C156.351 8.968 154.887 7.984 153.303 7.888C153.183 7.864 153.087 7.864 152.991 7.864C151.431 7.864 149.967 8.68 148.863 10.12C147.831 11.44 147.207 13.216 147.087 15.112C146.943 17.056 147.351 18.952 148.215 20.416C149.175 22.024 150.639 23.008 152.223 23.128C152.319 23.128 152.439 23.152 152.535 23.152C154.071 23.152 155.559 22.336 156.663 20.896C157.671 19.552 158.319 17.8 158.439 15.904C158.583 13.96 158.175 12.064 157.287 10.576ZM155.799 15.712C155.703 17.08 155.271 18.352 154.551 19.264C153.951 20.056 153.231 20.488 152.535 20.488C152.487 20.488 152.463 20.488 152.415 20.488C151.455 20.416 150.807 19.576 150.495 19.072C149.919 18.064 149.631 16.696 149.727 15.28C149.823 13.912 150.255 12.664 150.975 11.728C151.575 10.96 152.295 10.528 152.991 10.528C153.039 10.528 153.063 10.528 153.111 10.528C154.071 10.6 154.719 11.44 155.007 11.944C155.607 12.952 155.895 14.32 155.799 15.712ZM171.996 11.32C171.996 10.096 171.972 8.824 171.972 7.504H169.332C169.332 8.848 169.332 10.12 169.356 11.344C169.404 16.552 169.476 21.448 167.94 21.76C166.548 22.048 165.684 21.832 165.372 21.16C165.252 20.872 165.18 20.08 165.18 19.504L165.132 10.144H162.492L162.54 19.504C162.54 19.792 162.54 21.28 162.948 22.192C163.284 22.96 164.268 24.52 166.884 24.52C167.364 24.52 167.868 24.472 168.468 24.352C171.132 23.824 171.612 20.728 171.756 19.72C172.068 17.56 172.044 14.68 171.996 11.32ZM184.502 15.736C185.918 14.104 186.278 11.992 185.462 10.216C184.886 8.944 183.158 6.832 178.19 6.832H176.894L176.534 25.504L179.174 25.552L179.294 19.384L183.662 23.776L185.534 21.904L181.382 17.728C182.582 17.392 183.662 16.72 184.502 15.736ZM179.366 15.28L179.486 9.544C181.334 9.736 182.606 10.36 183.062 11.344C183.422 12.136 183.206 13.192 182.486 14.032C181.718 14.92 180.59 15.376 179.366 15.28ZM197.667 8.296L196.563 16.24L192.459 7.24L189.939 7.816L190.275 23.944L192.939 23.872L192.723 14.176L196.059 21.496L198.579 21.136L200.307 8.656L197.667 8.296ZM210.517 6.376L207.973 6.424L204.973 17.008L203.389 17.272L203.797 19.888L204.181 19.816L202.812 24.64L205.357 25.384L207.061 19.36L211.693 18.616L213.061 22.888L215.581 22.072L210.517 6.376ZM207.853 16.552L209.341 11.344L210.853 16.072L207.853 16.552ZM230.587 7.408L226.795 14.152L224.107 6.352L221.539 6.592L218.707 24.808L221.323 25.216L223.339 12.28L225.235 17.824L227.659 18.04L230.419 13.12V23.032H233.059V8.056L230.587 7.408ZM245.554 20.512L241.114 21.568L240.826 17.44L243.058 17.128L242.674 14.488L240.634 14.8L240.25 9.28H244.474V6.616H237.418L238.714 24.88L246.178 23.08L245.554 20.512ZM257.62 8.296L256.516 16.24L252.412 7.24L249.892 7.816L250.228 23.944L252.892 23.872L252.676 14.176L256.012 21.496L258.532 21.136L260.26 8.656L257.62 8.296ZM273.379 7.216L263.443 7.456L263.491 10.096L266.635 10.024L266.275 24.52L268.915 24.592L269.275 9.976L273.451 9.88L273.379 7.216ZM293.903 9.472C293.423 8.176 292.415 7.288 291.023 6.952C289.079 6.472 287.087 6.808 285.719 7.888C284.495 8.848 283.823 10.288 283.823 11.968H286.487C286.487 11.104 286.775 10.432 287.351 9.976C288.095 9.4 289.223 9.232 290.375 9.52C290.903 9.64 291.239 9.928 291.407 10.384C291.719 11.224 291.407 12.568 290.687 13.552C289.511 15.16 283.871 22.696 283.823 22.792L284.879 24.904H292.847V22.24H287.519C289.295 19.864 292.031 16.192 292.823 15.112C294.095 13.384 294.503 11.176 293.903 9.472ZM303.575 6.904C301.967 6.88 300.503 7.912 299.447 9.808C298.559 11.416 298.055 13.552 298.007 15.784C297.959 18.04 298.367 20.2 299.207 21.856C300.167 23.776 301.583 24.856 303.167 24.904C303.191 24.904 303.215 24.904 303.239 24.904C304.823 24.904 306.263 23.872 307.295 22C308.183 20.392 308.687 18.256 308.735 16.024C308.783 13.768 308.351 11.608 307.535 9.952C306.575 8.032 305.159 6.952 303.575 6.904ZM306.095 15.952C306.047 17.752 305.639 19.504 304.967 20.728C304.439 21.688 303.791 22.24 303.239 22.24C302.687 22.24 302.063 21.64 301.583 20.68C300.959 19.408 300.599 17.656 300.647 15.856C300.695 14.056 301.103 12.304 301.775 11.08C302.303 10.12 302.951 9.568 303.479 9.568H303.503C304.055 9.568 304.679 10.168 305.159 11.128C305.783 12.4 306.119 14.152 306.095 15.952ZM322.614 9.472C322.134 8.176 321.126 7.288 319.734 6.952C317.79 6.472 315.798 6.808 314.43 7.888C313.206 8.848 312.534 10.288 312.534 11.968H315.198C315.198 11.104 315.486 10.432 316.062 9.976C316.806 9.4 317.934 9.232 319.086 9.52C319.614 9.64 319.95 9.928 320.118 10.384C320.43 11.224 320.118 12.568 319.398 13.552C318.222 15.16 312.582 22.696 312.534 22.792L313.59 24.904H321.558V22.24H316.23C318.006 19.864 320.742 16.192 321.534 15.112C322.806 13.384 323.214 11.176 322.614 9.472ZM336.887 9.472C336.407 8.176 335.399 7.288 334.007 6.952C332.063 6.472 330.071 6.808 328.703 7.888C327.479 8.848 326.807 10.288 326.807 11.968H329.471C329.471 11.104 329.759 10.432 330.335 9.976C331.079 9.4 332.207 9.232 333.359 9.52C333.887 9.64 334.223 9.928 334.391 10.384C334.703 11.224 334.391 12.568 333.671 13.552C332.495 15.16 326.855 22.696 326.807 22.792L327.863 24.904H335.831V22.24H330.503C332.279 19.864 335.015 16.192 335.807 15.112C337.079 13.384 337.487 11.176 336.887 9.472Z" fill="#FAFAFA"/>
<path d="M10.488 16.36C9.96 15.496 9.216 14.776 8.304 14.248C8.76 13.888 9.144 13.456 9.456 13C10.224 11.8 10.32 10.432 9.672 9.28C9.144 8.296 7.608 6.64 3.264 6.64H1.968L1.512 22.456C1.104 22.48 0.648 22.48 0.192 22.48V25.144C7.392 25.144 9.84 22.648 10.68 21.16C11.52 19.648 11.448 17.896 10.488 16.36ZM4.536 9.352C6.216 9.52 7.08 10.048 7.344 10.528C7.56 10.912 7.392 11.296 7.224 11.56C6.816 12.208 5.832 12.832 4.44 13L4.536 9.352ZM8.352 19.864C8.112 20.32 7.176 21.544 4.176 22.144L4.368 15.688C6.384 15.904 7.68 16.864 8.232 17.752C8.544 18.256 8.832 19.024 8.352 19.864ZM23.3147 15.736C24.7307 14.104 25.0907 11.992 24.2747 10.216C23.6987 8.944 21.9707 6.832 17.0027 6.832H15.7067L15.3467 25.504L17.9867 25.552L18.1067 19.384L22.4747 23.776L24.3467 21.904L20.1947 17.728C21.3947 17.392 22.4747 16.72 23.3147 15.736ZM18.1787 15.28L18.2987 9.544C20.1467 9.736 21.4187 10.36 21.8747 11.344C22.2347 12.136 22.0187 13.192 21.2987 14.032C20.5307 14.92 19.4027 15.376 18.1787 15.28ZM35.5712 6.376L33.0272 6.424L30.0272 17.008L28.4432 17.272L28.8512 19.888L29.2352 19.816L27.8672 24.64L30.4112 25.384L32.1152 19.36L36.7472 18.616L38.1152 22.888L40.6352 22.072L35.5712 6.376ZM32.9072 16.552L34.3952 11.344L35.9072 16.072L32.9072 16.552ZM56.5232 6.592L54.5792 19.36L51.9632 11.968L49.5632 11.776L46.8272 16.6L45.7472 7L43.1312 7.312L44.6672 20.968L47.1392 21.472L50.4272 15.616L53.8352 25.24L56.4032 25L59.1392 7L56.5232 6.592ZM63.3043 8.704C63.2803 8.896 63.2563 9.688 63.2323 10.912C63.1603 13.912 63.0163 18.928 62.8963 22.312L65.5363 22.408C65.6563 19.024 65.8003 13.984 65.8723 10.984C65.9203 9.808 65.9443 8.968 65.9443 8.8L63.3043 8.704ZM78.9225 9.784C78.8985 8.872 78.8745 8.08 78.8745 7.48H76.2105C76.2105 8.152 76.2585 8.944 76.2825 9.88C76.3785 12.208 76.4745 15.112 76.2105 17.584C75.8505 20.992 74.9625 21.688 74.6025 21.832C73.9545 22.096 73.4025 22.096 72.9465 21.856C72.5385 21.64 72.3225 21.28 72.2745 21.184C72.1065 20.752 72.1545 19.984 72.1785 19.696L69.5625 19.288C69.5385 19.456 69.3465 20.968 69.8265 22.168C70.1385 22.984 70.8345 23.728 71.6745 24.184C72.1545 24.448 72.8265 24.688 73.6665 24.688C74.2425 24.688 74.8665 24.568 75.5865 24.304C77.3865 23.56 78.4665 21.472 78.8505 17.872C79.1385 15.208 79.0185 12.064 78.9225 9.784ZM90.2509 6.376L87.7069 6.424L84.7069 17.008L83.1229 17.272L83.5309 19.888L83.9149 19.816L82.5469 24.64L85.0909 25.384L86.7949 19.36L91.4269 18.616L92.7949 22.888L95.3149 22.072L90.2509 6.376ZM87.5869 16.552L89.0749 11.344L90.5869 16.072L87.5869 16.552ZM106.638 6.232L101.886 13.216L98.766 8.032L96.51 9.4L100.47 16.024L100.182 24.976L102.822 25.048L103.134 16.096L108.822 7.72L106.638 6.232ZM117.392 6.376L114.848 6.424L111.848 17.008L110.264 17.272L110.672 19.888L111.056 19.816L109.688 24.64L112.232 25.384L113.936 19.36L118.568 18.616L119.936 22.888L122.456 22.072L117.392 6.376ZM114.728 16.552L116.216 11.344L117.728 16.072L114.728 16.552ZM142.356 7.216L132.42 7.456L132.468 10.096L135.612 10.024L135.252 24.52L137.892 24.592L138.252 9.976L142.428 9.88L142.356 7.216ZM155.287 10.576C154.351 8.968 152.887 7.984 151.303 7.888C151.183 7.864 151.087 7.864 150.991 7.864C149.431 7.864 147.967 8.68 146.863 10.12C145.831 11.44 145.207 13.216 145.087 15.112C144.943 17.056 145.351 18.952 146.215 20.416C147.175 22.024 148.639 23.008 150.223 23.128C150.319 23.128 150.439 23.152 150.535 23.152C152.071 23.152 153.559 22.336 154.663 20.896C155.671 19.552 156.319 17.8 156.439 15.904C156.583 13.96 156.175 12.064 155.287 10.576ZM153.799 15.712C153.703 17.08 153.271 18.352 152.551 19.264C151.951 20.056 151.231 20.488 150.535 20.488C150.487 20.488 150.463 20.488 150.415 20.488C149.455 20.416 148.807 19.576 148.495 19.072C147.919 18.064 147.631 16.696 147.727 15.28C147.823 13.912 148.255 12.664 148.975 11.728C149.575 10.96 150.295 10.528 150.991 10.528C151.039 10.528 151.063 10.528 151.111 10.528C152.071 10.6 152.719 11.44 153.007 11.944C153.607 12.952 153.895 14.32 153.799 15.712ZM169.996 11.32C169.996 10.096 169.972 8.824 169.972 7.504H167.332C167.332 8.848 167.332 10.12 167.356 11.344C167.404 16.552 167.476 21.448 165.94 21.76C164.548 22.048 163.684 21.832 163.372 21.16C163.252 20.872 163.18 20.08 163.18 19.504L163.132 10.144H160.492L160.54 19.504C160.54 19.792 160.54 21.28 160.948 22.192C161.284 22.96 162.268 24.52 164.884 24.52C165.364 24.52 165.868 24.472 166.468 24.352C169.132 23.824 169.612 20.728 169.756 19.72C170.068 17.56 170.044 14.68 169.996 11.32ZM182.502 15.736C183.918 14.104 184.278 11.992 183.462 10.216C182.886 8.944 181.158 6.832 176.19 6.832H174.894L174.534 25.504L177.174 25.552L177.294 19.384L181.662 23.776L183.534 21.904L179.382 17.728C180.582 17.392 181.662 16.72 182.502 15.736ZM177.366 15.28L177.486 9.544C179.334 9.736 180.606 10.36 181.062 11.344C181.422 12.136 181.206 13.192 180.486 14.032C179.718 14.92 178.59 15.376 177.366 15.28ZM195.667 8.296L194.563 16.24L190.459 7.24L187.939 7.816L188.275 23.944L190.939 23.872L190.723 14.176L194.059 21.496L196.579 21.136L198.307 8.656L195.667 8.296ZM208.517 6.376L205.973 6.424L202.973 17.008L201.389 17.272L201.797 19.888L202.181 19.816L200.812 24.64L203.357 25.384L205.061 19.36L209.693 18.616L211.061 22.888L213.581 22.072L208.517 6.376ZM205.853 16.552L207.341 11.344L208.853 16.072L205.853 16.552ZM228.587 7.408L224.795 14.152L222.107 6.352L219.539 6.592L216.707 24.808L219.323 25.216L221.339 12.28L223.235 17.824L225.659 18.04L228.419 13.12V23.032H231.059V8.056L228.587 7.408ZM243.554 20.512L239.114 21.568L238.826 17.44L241.058 17.128L240.674 14.488L238.634 14.8L238.25 9.28H242.474V6.616H235.418L236.714 24.88L244.178 23.08L243.554 20.512ZM255.62 8.296L254.516 16.24L250.412 7.24L247.892 7.816L248.228 23.944L250.892 23.872L250.676 14.176L254.012 21.496L256.532 21.136L258.26 8.656L255.62 8.296ZM271.379 7.216L261.443 7.456L261.491 10.096L264.635 10.024L264.275 24.52L266.915 24.592L267.275 9.976L271.451 9.88L271.379 7.216ZM291.903 9.472C291.423 8.176 290.415 7.288 289.023 6.952C287.079 6.472 285.087 6.808 283.719 7.888C282.495 8.848 281.823 10.288 281.823 11.968H284.487C284.487 11.104 284.775 10.432 285.351 9.976C286.095 9.4 287.223 9.232 288.375 9.52C288.903 9.64 289.239 9.928 289.407 10.384C289.719 11.224 289.407 12.568 288.687 13.552C287.511 15.16 281.871 22.696 281.823 22.792L282.879 24.904H290.847V22.24H285.519C287.295 19.864 290.031 16.192 290.823 15.112C292.095 13.384 292.503 11.176 291.903 9.472ZM301.575 6.904C299.967 6.88 298.503 7.912 297.447 9.808C296.559 11.416 296.055 13.552 296.007 15.784C295.959 18.04 296.367 20.2 297.207 21.856C298.167 23.776 299.583 24.856 301.167 24.904C301.191 24.904 301.215 24.904 301.239 24.904C302.823 24.904 304.263 23.872 305.295 22C306.183 20.392 306.687 18.256 306.735 16.024C306.783 13.768 306.351 11.608 305.535 9.952C304.575 8.032 303.159 6.952 301.575 6.904ZM304.095 15.952C304.047 17.752 303.639 19.504 302.967 20.728C302.439 21.688 301.791 22.24 301.239 22.24C300.687 22.24 300.063 21.64 299.583 20.68C298.959 19.408 298.599 17.656 298.647 15.856C298.695 14.056 299.103 12.304 299.775 11.08C300.303 10.12 300.951 9.568 301.479 9.568H301.503C302.055 9.568 302.679 10.168 303.159 11.128C303.783 12.4 304.119 14.152 304.095 15.952ZM320.614 9.472C320.134 8.176 319.126 7.288 317.734 6.952C315.79 6.472 313.798 6.808 312.43 7.888C311.206 8.848 310.534 10.288 310.534 11.968H313.198C313.198 11.104 313.486 10.432 314.062 9.976C314.806 9.4 315.934 9.232 317.086 9.52C317.614 9.64 317.95 9.928 318.118 10.384C318.43 11.224 318.118 12.568 317.398 13.552C316.222 15.16 310.582 22.696 310.534 22.792L311.59 24.904H319.558V22.24H314.23C316.006 19.864 318.742 16.192 319.534 15.112C320.806 13.384 321.214 11.176 320.614 9.472ZM334.887 9.472C334.407 8.176 333.399 7.288 332.007 6.952C330.063 6.472 328.071 6.808 326.703 7.888C325.479 8.848 324.807 10.288 324.807 11.968H327.471C327.471 11.104 327.759 10.432 328.335 9.976C329.079 9.4 330.207 9.232 331.359 9.52C331.887 9.64 332.223 9.928 332.391 10.384C332.703 11.224 332.391 12.568 331.671 13.552C330.495 15.16 324.855 22.696 324.807 22.792L325.863 24.904H333.831V22.24H328.503C330.279 19.864 333.015 16.192 333.807 15.112C335.079 13.384 335.487 11.176 334.887 9.472Z" fill="#022051"/>
</svg>
