<svg width="722" height="73" viewBox="0 0 722 73" fill="none" xmlns="http://www.w3.org/2000/svg">
<path d="M85.094 28.312C85.094 20.792 73.99 22.552 73.99 18.648C73.99 17.24 74.982 16.568 76.294 16.6C77.766 16.632 78.79 17.496 78.886 18.936H84.806C84.582 14.648 81.286 12.216 76.39 12.216C71.686 12.216 68.198 14.584 68.198 18.84C68.134 26.808 79.366 24.568 79.366 28.728C79.366 30.04 78.342 30.84 76.742 30.84C75.206 30.84 74.118 30.008 73.958 28.28H68.134C68.294 32.824 72.07 35.224 76.902 35.224C82.15 35.224 85.094 32.088 85.094 28.312ZM89.6455 28.792C89.6455 33.432 92.2375 35 95.9495 35H98.7335V30.36H96.7815C95.5655 30.36 95.1175 29.912 95.1175 28.856V21.688H98.7015V17.144H95.1175V12.792H89.6455V17.144H87.4695V21.688H89.6455V28.792ZM101.014 26.04C101.014 31.672 104.502 35.256 108.854 35.256C111.51 35.256 113.398 34.04 114.39 32.472V35H119.862V17.144H114.39V19.672C113.43 18.104 111.542 16.888 108.886 16.888C104.502 16.888 101.014 20.408 101.014 26.04ZM114.39 26.072C114.39 28.92 112.566 30.488 110.486 30.488C108.438 30.488 106.582 28.888 106.582 26.04C106.582 23.192 108.438 21.656 110.486 21.656C112.566 21.656 114.39 23.224 114.39 26.072ZM132.364 28.312L128.236 17.144H122.124L129.388 34.392L125.292 43.48H131.18L142.38 17.144H136.46L132.364 28.312ZM150.564 16.92H156.516V35H161.988V16.92H167.94V12.536H150.564V16.92ZM188.639 17.144H183.167V26.84C183.167 29.272 181.823 30.616 179.711 30.616C177.663 30.616 176.287 29.272 176.287 26.84V17.144H170.847V27.576C170.847 32.344 173.631 35.192 177.759 35.192C180.159 35.192 182.079 34.104 183.167 32.568V35H188.639V17.144ZM205.209 35H210.649V24.568C210.649 19.768 207.897 16.952 203.769 16.952C201.369 16.952 199.449 18.008 198.361 19.512V17.144H192.889V35H198.361V25.304C198.361 22.872 199.705 21.528 201.785 21.528C203.865 21.528 205.209 22.872 205.209 25.304V35ZM222.644 21.272C224.468 21.272 226.004 22.392 226.004 24.344H219.156C219.476 22.36 220.852 21.272 222.644 21.272ZM231.188 29.08H225.364C224.916 30.04 224.052 30.808 222.516 30.808C220.756 30.808 219.316 29.72 219.124 27.384H231.508C231.572 26.84 231.604 26.296 231.604 25.784C231.604 20.344 227.924 16.888 222.708 16.888C217.396 16.888 213.684 20.408 213.684 26.072C213.684 31.736 217.46 35.256 222.708 35.256C227.156 35.256 230.324 32.568 231.188 29.08ZM233.722 26.04C233.722 31.672 237.21 35.256 241.594 35.256C244.218 35.256 246.106 34.072 247.098 32.44V35H252.57V11.32H247.098V19.608C246.01 17.976 243.962 16.888 241.594 16.888C237.21 16.888 233.722 20.408 233.722 26.04ZM247.098 26.072C247.098 28.92 245.274 30.488 243.194 30.488C241.146 30.488 239.29 28.888 239.29 26.04C239.29 23.192 241.146 21.656 243.194 21.656C245.274 21.656 247.098 23.224 247.098 26.072ZM263.95 35H269.422V25.912H276.27V21.656H269.422V16.92H278.574V12.536H263.95V35ZM299.242 26.072C299.242 20.408 295.21 16.888 289.962 16.888C284.746 16.888 280.682 20.408 280.682 26.072C280.682 31.736 284.65 35.256 289.898 35.256C295.146 35.256 299.242 31.736 299.242 26.072ZM286.25 26.072C286.25 23.032 287.978 21.624 289.962 21.624C291.882 21.624 293.674 23.032 293.674 26.072C293.674 29.08 291.85 30.52 289.898 30.52C287.914 30.52 286.25 29.08 286.25 26.072ZM307.937 26.712C307.937 23.64 309.441 22.744 312.033 22.744H313.537V16.952C311.137 16.952 309.185 18.232 307.937 20.12V17.144H302.465V35H307.937V26.712ZM339.894 28.312C339.894 20.792 328.79 22.552 328.79 18.648C328.79 17.24 329.782 16.568 331.094 16.6C332.566 16.632 333.59 17.496 333.686 18.936H339.606C339.382 14.648 336.086 12.216 331.19 12.216C326.486 12.216 322.998 14.584 322.998 18.84C322.934 26.808 334.166 24.568 334.166 28.728C334.166 30.04 333.142 30.84 331.542 30.84C330.006 30.84 328.918 30.008 328.758 28.28H322.934C323.094 32.824 326.87 35.224 331.702 35.224C336.95 35.224 339.894 32.088 339.894 28.312ZM361.054 26.072C361.054 20.408 357.022 16.888 351.774 16.888C346.558 16.888 342.494 20.408 342.494 26.072C342.494 31.736 346.462 35.256 351.71 35.256C356.958 35.256 361.054 31.736 361.054 26.072ZM348.062 26.072C348.062 23.032 349.79 21.624 351.774 21.624C353.694 21.624 355.486 23.032 355.486 26.072C355.486 29.08 353.662 30.52 351.71 30.52C349.726 30.52 348.062 29.08 348.062 26.072ZM388.885 35H394.325V24.568C394.325 19.768 391.477 16.952 387.061 16.952C384.469 16.952 382.229 18.392 381.045 20.28C379.829 18.136 377.653 16.952 374.965 16.952C372.629 16.952 370.805 17.944 369.749 19.384V17.144H364.277V35H369.749V25.304C369.749 22.968 371.093 21.688 373.173 21.688C375.253 21.688 376.597 22.968 376.597 25.304V35H382.037V25.304C382.037 22.968 383.381 21.688 385.461 21.688C387.541 21.688 388.885 22.968 388.885 25.304V35ZM406.344 21.272C408.168 21.272 409.704 22.392 409.704 24.344H402.856C403.176 22.36 404.552 21.272 406.344 21.272ZM414.888 29.08H409.064C408.616 30.04 407.752 30.808 406.216 30.808C404.456 30.808 403.016 29.72 402.824 27.384H415.208C415.272 26.84 415.304 26.296 415.304 25.784C415.304 20.344 411.624 16.888 406.408 16.888C401.096 16.888 397.384 20.408 397.384 26.072C397.384 31.736 401.16 35.256 406.408 35.256C410.856 35.256 414.024 32.568 414.888 29.08ZM419.374 28.792C419.374 33.432 421.966 35 425.678 35H428.462V30.36H426.51C425.294 30.36 424.846 29.912 424.846 28.856V21.688H428.43V17.144H424.846V12.792H419.374V17.144H417.198V21.688H419.374V28.792ZM431.83 35H437.302V25.304C437.302 22.872 438.646 21.528 440.726 21.528C442.806 21.528 444.15 22.872 444.15 25.304V35H449.59V24.568C449.59 19.768 446.87 16.952 442.806 16.952C440.342 16.952 438.39 18.008 437.302 19.544V11.32H431.83V35ZM453.713 35H459.185V17.144H453.713V35ZM456.465 15.288C458.385 15.288 459.697 13.976 459.697 12.344C459.697 10.68 458.385 9.368 456.465 9.368C454.513 9.368 453.201 10.68 453.201 12.344C453.201 13.976 454.513 15.288 456.465 15.288ZM475.79 35H481.23V24.568C481.23 19.768 478.478 16.952 474.35 16.952C471.95 16.952 470.03 18.008 468.942 19.512V17.144H463.47V35H468.942V25.304C468.942 22.872 470.286 21.528 472.366 21.528C474.446 21.528 475.79 22.872 475.79 25.304V35ZM484.265 26.04C484.265 31.672 487.753 35.256 492.137 35.256C494.761 35.256 496.649 34.008 497.641 32.44V34.968C497.641 37.976 496.009 39.064 493.929 39.064C492.041 39.064 490.697 38.2 490.345 36.856H484.937C485.417 41.112 488.873 43.8 494.185 43.8C500.361 43.8 503.113 39.736 503.113 34.968V17.144H497.641V19.672C496.681 18.072 494.761 16.888 492.137 16.888C487.753 16.888 484.265 20.408 484.265 26.04ZM497.641 26.072C497.641 28.92 495.817 30.488 493.737 30.488C491.689 30.488 489.833 28.888 489.833 26.04C489.833 23.192 491.689 21.656 493.737 21.656C495.817 21.656 497.641 23.224 497.641 26.072ZM529.821 35H535.613L527.485 12.536H521.149L513.021 35H518.749L520.093 31.032H528.477L529.821 35ZM527.069 26.808H521.533L524.285 18.584L527.069 26.808ZM563.015 35H568.455V24.568C568.455 19.768 565.607 16.952 561.191 16.952C558.599 16.952 556.359 18.392 555.175 20.28C553.959 18.136 551.783 16.952 549.095 16.952C546.759 16.952 544.935 17.944 543.879 19.384V17.144H538.407V35H543.879V25.304C543.879 22.968 545.223 21.688 547.303 21.688C549.383 21.688 550.727 22.968 550.727 25.304V35H556.167V25.304C556.167 22.968 557.511 21.688 559.591 21.688C561.671 21.688 563.015 22.968 563.015 25.304V35ZM571.514 26.04C571.514 31.672 575.002 35.256 579.354 35.256C582.01 35.256 583.898 34.04 584.89 32.472V35H590.362V17.144H584.89V19.672C583.93 18.104 582.042 16.888 579.386 16.888C575.002 16.888 571.514 20.408 571.514 26.04ZM584.89 26.072C584.89 28.92 583.066 30.488 580.986 30.488C578.938 30.488 577.082 28.888 577.082 26.04C577.082 23.192 578.938 21.656 580.986 21.656C583.066 21.656 584.89 23.224 584.89 26.072ZM607.344 17.144H593.712V21.656H601.072L593.648 30.648V35H607.504V30.488H599.76L607.344 21.496V17.144ZM610.835 35H616.307V17.144H610.835V35ZM613.587 15.288C615.507 15.288 616.819 13.976 616.819 12.344C616.819 10.68 615.507 9.368 613.587 9.368C611.635 9.368 610.323 10.68 610.323 12.344C610.323 13.976 611.635 15.288 613.587 15.288ZM632.913 35H638.353V24.568C638.353 19.768 635.601 16.952 631.473 16.952C629.073 16.952 627.153 18.008 626.065 19.512V17.144H620.593V35H626.065V25.304C626.065 22.872 627.409 21.528 629.489 21.528C631.569 21.528 632.913 22.872 632.913 25.304V35ZM641.387 26.04C641.387 31.672 644.875 35.256 649.259 35.256C651.883 35.256 653.771 34.008 654.763 32.44V34.968C654.763 37.976 653.131 39.064 651.051 39.064C649.163 39.064 647.819 38.2 647.467 36.856H642.059C642.539 41.112 645.995 43.8 651.307 43.8C657.483 43.8 660.235 39.736 660.235 34.968V17.144H654.763V19.672C653.803 18.072 651.883 16.888 649.259 16.888C644.875 16.888 641.387 20.408 641.387 26.04ZM654.763 26.072C654.763 28.92 652.939 30.488 650.859 30.488C648.811 30.488 646.955 28.888 646.955 26.04C646.955 23.192 648.811 21.656 650.859 21.656C652.939 21.656 654.763 23.224 654.763 26.072Z" fill="#FAFAFA"/>
<path d="M81.594 28.312C81.594 20.792 70.49 22.552 70.49 18.648C70.49 17.24 71.482 16.568 72.794 16.6C74.266 16.632 75.29 17.496 75.386 18.936H81.306C81.082 14.648 77.786 12.216 72.89 12.216C68.186 12.216 64.698 14.584 64.698 18.84C64.634 26.808 75.866 24.568 75.866 28.728C75.866 30.04 74.842 30.84 73.242 30.84C71.706 30.84 70.618 30.008 70.458 28.28H64.634C64.794 32.824 68.57 35.224 73.402 35.224C78.65 35.224 81.594 32.088 81.594 28.312ZM86.1455 28.792C86.1455 33.432 88.7375 35 92.4495 35H95.2335V30.36H93.2815C92.0655 30.36 91.6175 29.912 91.6175 28.856V21.688H95.2015V17.144H91.6175V12.792H86.1455V17.144H83.9695V21.688H86.1455V28.792ZM97.5135 26.04C97.5135 31.672 101.002 35.256 105.354 35.256C108.01 35.256 109.898 34.04 110.89 32.472V35H116.362V17.144H110.89V19.672C109.93 18.104 108.042 16.888 105.386 16.888C101.002 16.888 97.5135 20.408 97.5135 26.04ZM110.89 26.072C110.89 28.92 109.066 30.488 106.986 30.488C104.938 30.488 103.082 28.888 103.082 26.04C103.082 23.192 104.938 21.656 106.986 21.656C109.066 21.656 110.89 23.224 110.89 26.072ZM128.864 28.312L124.736 17.144H118.624L125.888 34.392L121.792 43.48H127.68L138.88 17.144H132.96L128.864 28.312ZM147.064 16.92H153.016V35H158.488V16.92H164.44V12.536H147.064V16.92ZM185.139 17.144H179.667V26.84C179.667 29.272 178.323 30.616 176.211 30.616C174.163 30.616 172.787 29.272 172.787 26.84V17.144H167.347V27.576C167.347 32.344 170.131 35.192 174.259 35.192C176.659 35.192 178.579 34.104 179.667 32.568V35H185.139V17.144ZM201.709 35H207.149V24.568C207.149 19.768 204.397 16.952 200.269 16.952C197.869 16.952 195.949 18.008 194.861 19.512V17.144H189.389V35H194.861V25.304C194.861 22.872 196.205 21.528 198.285 21.528C200.365 21.528 201.709 22.872 201.709 25.304V35ZM219.144 21.272C220.968 21.272 222.504 22.392 222.504 24.344H215.656C215.976 22.36 217.352 21.272 219.144 21.272ZM227.688 29.08H221.864C221.416 30.04 220.552 30.808 219.016 30.808C217.256 30.808 215.816 29.72 215.624 27.384H228.008C228.072 26.84 228.104 26.296 228.104 25.784C228.104 20.344 224.424 16.888 219.208 16.888C213.896 16.888 210.184 20.408 210.184 26.072C210.184 31.736 213.96 35.256 219.208 35.256C223.656 35.256 226.824 32.568 227.688 29.08ZM230.222 26.04C230.222 31.672 233.71 35.256 238.094 35.256C240.718 35.256 242.606 34.072 243.598 32.44V35H249.07V11.32H243.598V19.608C242.51 17.976 240.462 16.888 238.094 16.888C233.71 16.888 230.222 20.408 230.222 26.04ZM243.598 26.072C243.598 28.92 241.774 30.488 239.694 30.488C237.646 30.488 235.79 28.888 235.79 26.04C235.79 23.192 237.646 21.656 239.694 21.656C241.774 21.656 243.598 23.224 243.598 26.072ZM260.45 35H265.922V25.912H272.77V21.656H265.922V16.92H275.074V12.536H260.45V35ZM295.742 26.072C295.742 20.408 291.71 16.888 286.462 16.888C281.246 16.888 277.182 20.408 277.182 26.072C277.182 31.736 281.15 35.256 286.398 35.256C291.646 35.256 295.742 31.736 295.742 26.072ZM282.75 26.072C282.75 23.032 284.478 21.624 286.462 21.624C288.382 21.624 290.174 23.032 290.174 26.072C290.174 29.08 288.35 30.52 286.398 30.52C284.414 30.52 282.75 29.08 282.75 26.072ZM304.437 26.712C304.437 23.64 305.941 22.744 308.533 22.744H310.037V16.952C307.637 16.952 305.685 18.232 304.437 20.12V17.144H298.965V35H304.437V26.712ZM336.394 28.312C336.394 20.792 325.29 22.552 325.29 18.648C325.29 17.24 326.282 16.568 327.594 16.6C329.066 16.632 330.09 17.496 330.186 18.936H336.106C335.882 14.648 332.586 12.216 327.69 12.216C322.986 12.216 319.498 14.584 319.498 18.84C319.434 26.808 330.666 24.568 330.666 28.728C330.666 30.04 329.642 30.84 328.042 30.84C326.506 30.84 325.418 30.008 325.258 28.28H319.434C319.594 32.824 323.37 35.224 328.202 35.224C333.45 35.224 336.394 32.088 336.394 28.312ZM357.554 26.072C357.554 20.408 353.522 16.888 348.274 16.888C343.058 16.888 338.994 20.408 338.994 26.072C338.994 31.736 342.962 35.256 348.21 35.256C353.458 35.256 357.554 31.736 357.554 26.072ZM344.562 26.072C344.562 23.032 346.29 21.624 348.274 21.624C350.194 21.624 351.986 23.032 351.986 26.072C351.986 29.08 350.162 30.52 348.21 30.52C346.226 30.52 344.562 29.08 344.562 26.072ZM385.385 35H390.825V24.568C390.825 19.768 387.977 16.952 383.561 16.952C380.969 16.952 378.729 18.392 377.545 20.28C376.329 18.136 374.153 16.952 371.465 16.952C369.129 16.952 367.305 17.944 366.249 19.384V17.144H360.777V35H366.249V25.304C366.249 22.968 367.593 21.688 369.673 21.688C371.753 21.688 373.097 22.968 373.097 25.304V35H378.537V25.304C378.537 22.968 379.881 21.688 381.961 21.688C384.041 21.688 385.385 22.968 385.385 25.304V35ZM402.844 21.272C404.668 21.272 406.204 22.392 406.204 24.344H399.356C399.676 22.36 401.052 21.272 402.844 21.272ZM411.388 29.08H405.564C405.116 30.04 404.252 30.808 402.716 30.808C400.956 30.808 399.516 29.72 399.324 27.384H411.708C411.772 26.84 411.804 26.296 411.804 25.784C411.804 20.344 408.124 16.888 402.908 16.888C397.596 16.888 393.884 20.408 393.884 26.072C393.884 31.736 397.66 35.256 402.908 35.256C407.356 35.256 410.524 32.568 411.388 29.08ZM415.874 28.792C415.874 33.432 418.466 35 422.178 35H424.962V30.36H423.01C421.794 30.36 421.346 29.912 421.346 28.856V21.688H424.93V17.144H421.346V12.792H415.874V17.144H413.698V21.688H415.874V28.792ZM428.33 35H433.802V25.304C433.802 22.872 435.146 21.528 437.226 21.528C439.306 21.528 440.65 22.872 440.65 25.304V35H446.09V24.568C446.09 19.768 443.37 16.952 439.306 16.952C436.842 16.952 434.89 18.008 433.802 19.544V11.32H428.33V35ZM450.213 35H455.685V17.144H450.213V35ZM452.965 15.288C454.885 15.288 456.197 13.976 456.197 12.344C456.197 10.68 454.885 9.368 452.965 9.368C451.013 9.368 449.701 10.68 449.701 12.344C449.701 13.976 451.013 15.288 452.965 15.288ZM472.29 35H477.73V24.568C477.73 19.768 474.978 16.952 470.85 16.952C468.45 16.952 466.53 18.008 465.442 19.512V17.144H459.97V35H465.442V25.304C465.442 22.872 466.786 21.528 468.866 21.528C470.946 21.528 472.29 22.872 472.29 25.304V35ZM480.765 26.04C480.765 31.672 484.253 35.256 488.637 35.256C491.261 35.256 493.149 34.008 494.141 32.44V34.968C494.141 37.976 492.509 39.064 490.429 39.064C488.541 39.064 487.197 38.2 486.845 36.856H481.437C481.917 41.112 485.373 43.8 490.685 43.8C496.861 43.8 499.613 39.736 499.613 34.968V17.144H494.141V19.672C493.181 18.072 491.261 16.888 488.637 16.888C484.253 16.888 480.765 20.408 480.765 26.04ZM494.141 26.072C494.141 28.92 492.317 30.488 490.237 30.488C488.189 30.488 486.333 28.888 486.333 26.04C486.333 23.192 488.189 21.656 490.237 21.656C492.317 21.656 494.141 23.224 494.141 26.072ZM526.321 35H532.113L523.985 12.536H517.649L509.521 35H515.249L516.593 31.032H524.977L526.321 35ZM523.569 26.808H518.033L520.785 18.584L523.569 26.808ZM559.514 35H564.954V24.568C564.954 19.768 562.106 16.952 557.69 16.952C555.098 16.952 552.858 18.392 551.674 20.28C550.458 18.136 548.282 16.952 545.594 16.952C543.258 16.952 541.434 17.944 540.378 19.384V17.144H534.906V35H540.378V25.304C540.378 22.968 541.722 21.688 543.802 21.688C545.882 21.688 547.226 22.968 547.226 25.304V35H552.666V25.304C552.666 22.968 554.01 21.688 556.09 21.688C558.17 21.688 559.514 22.968 559.514 25.304V35ZM568.014 26.04C568.014 31.672 571.502 35.256 575.854 35.256C578.51 35.256 580.398 34.04 581.39 32.472V35H586.862V17.144H581.39V19.672C580.43 18.104 578.542 16.888 575.886 16.888C571.502 16.888 568.014 20.408 568.014 26.04ZM581.39 26.072C581.39 28.92 579.566 30.488 577.486 30.488C575.438 30.488 573.582 28.888 573.582 26.04C573.582 23.192 575.438 21.656 577.486 21.656C579.566 21.656 581.39 23.224 581.39 26.072ZM603.844 17.144H590.212V21.656H597.572L590.148 30.648V35H604.004V30.488H596.26L603.844 21.496V17.144ZM607.335 35H612.807V17.144H607.335V35ZM610.087 15.288C612.007 15.288 613.319 13.976 613.319 12.344C613.319 10.68 612.007 9.368 610.087 9.368C608.135 9.368 606.823 10.68 606.823 12.344C606.823 13.976 608.135 15.288 610.087 15.288ZM629.413 35H634.853V24.568C634.853 19.768 632.101 16.952 627.973 16.952C625.573 16.952 623.653 18.008 622.565 19.512V17.144H617.093V35H622.565V25.304C622.565 22.872 623.909 21.528 625.989 21.528C628.069 21.528 629.413 22.872 629.413 25.304V35ZM637.887 26.04C637.887 31.672 641.375 35.256 645.759 35.256C648.383 35.256 650.271 34.008 651.263 32.44V34.968C651.263 37.976 649.631 39.064 647.551 39.064C645.663 39.064 644.319 38.2 643.967 36.856H638.559C639.039 41.112 642.495 43.8 647.807 43.8C653.983 43.8 656.735 39.736 656.735 34.968V17.144H651.263V19.672C650.303 18.072 648.383 16.888 645.759 16.888C641.375 16.888 637.887 20.408 637.887 26.04ZM651.263 26.072C651.263 28.92 649.439 30.488 647.359 30.488C645.311 30.488 643.455 28.888 643.455 26.04C643.455 23.192 645.311 21.656 647.359 21.656C649.439 21.656 651.263 23.224 651.263 26.072Z" fill="#A6161B"/>
</svg>
